<svg width="24" height="24" viewBox="0 0 24 24" fill="none" xmlns="http://www.w3.org/2000/svg">
<g clip-path="url(#clip0_920_57)">
<path d="M8.25 9.75C8.84674 9.75 9.41903 9.51295 9.84099 9.09099C10.2629 8.66903 10.5 8.09674 10.5 7.5C10.5 6.90326 10.2629 6.33097 9.84099 5.90901C9.41903 5.48705 8.84674 5.25 8.25 5.25C7.65326 5.25 7.08097 5.48705 6.65901 5.90901C6.23705 6.33097 6 6.90326 6 7.5C6 8.09674 6.23705 8.66903 6.65901 9.09099C7.08097 9.51295 7.65326 9.75 8.25 9.75ZM15.75 9.75C16.3467 9.75 16.919 9.51295 17.341 9.09099C17.7629 8.66903 18 8.09674 18 7.5C18 6.90326 17.7629 6.33097 17.341 5.90901C16.919 5.48705 16.3467 5.25 15.75 5.25C15.1533 5.25 14.581 5.48705 14.159 5.90901C13.7371 6.33097 13.5 6.90326 13.5 7.5C13.5 8.09674 13.7371 8.66903 14.159 9.09099C14.581 9.51295 15.1533 9.75 15.75 9.75ZM5.25 12C5.25 12 5.25 18.75 12 18.75C18.75 18.75 18.75 12 18.75 12H5.25Z" fill="#269CC1"/>
<path d="M8.25 9.75C8.84674 9.75 9.41903 9.51295 9.84099 9.09099C10.2629 8.66903 10.5 8.09674 10.5 7.5C10.5 6.90326 10.2629 6.33097 9.84099 5.90901C9.41903 5.48705 8.84674 5.25 8.25 5.25C7.65326 5.25 7.08097 5.48705 6.65901 5.90901C6.23705 6.33097 6 6.90326 6 7.5C6 8.09674 6.23705 8.66903 6.65901 9.09099C7.08097 9.51295 7.65326 9.75 8.25 9.75ZM15.75 9.75C16.3467 9.75 16.919 9.51295 17.341 9.09099C17.7629 8.66903 18 8.09674 18 7.5C18 6.90326 17.7629 6.33097 17.341 5.90901C16.919 5.48705 16.3467 5.25 15.75 5.25C15.1533 5.25 14.581 5.48705 14.159 5.90901C13.7371 6.33097 13.5 6.90326 13.5 7.5C13.5 8.09674 13.7371 8.66903 14.159 9.09099C14.581 9.51295 15.1533 9.75 15.75 9.75ZM5.25 12C5.25 12 5.25 18.75 12 18.75C18.75 18.75 18.75 12 18.75 12H5.25Z" fill="#503B9A" fill-opacity="0.5"/>
<path d="M3.57225 4.06725C5.48475 1.9905 8.32125 0.75 12 0.75C15.678 0.75 18.5145 1.9905 20.4263 4.06725C22.329 6.1335 23.2493 8.9535 23.2493 11.9992C23.2493 15.045 22.329 17.8643 20.4263 19.9313C18.5138 22.008 15.678 23.2485 12 23.2485C8.322 23.2485 5.4855 22.008 3.573 19.9313C1.6695 17.865 0.75 15.045 0.75 11.9992C0.75 8.9535 1.6695 6.1335 3.57225 4.06725ZM4.67625 5.0835C3.07875 6.81675 2.25 9.246 2.25 11.9985C2.25 14.7518 3.0795 17.181 4.67625 18.915C6.26325 20.6385 8.676 21.7485 11.9992 21.7485C15.3217 21.7485 17.7353 20.6385 19.3223 18.915C20.919 17.1817 21.7485 14.7525 21.7485 11.9992C21.7485 9.24675 20.919 6.81675 19.3223 5.0835C17.7353 3.36 15.3225 2.25 12 2.25C8.6775 2.25 6.26325 3.36 4.67625 5.0835Z" fill="#269CC1"/>
<path d="M3.57225 4.06725C5.48475 1.9905 8.32125 0.75 12 0.75C15.678 0.75 18.5145 1.9905 20.4263 4.06725C22.329 6.1335 23.2493 8.9535 23.2493 11.9992C23.2493 15.045 22.329 17.8643 20.4263 19.9313C18.5138 22.008 15.678 23.2485 12 23.2485C8.322 23.2485 5.4855 22.008 3.573 19.9313C1.6695 17.865 0.75 15.045 0.75 11.9992C0.75 8.9535 1.6695 6.1335 3.57225 4.06725ZM4.67625 5.0835C3.07875 6.81675 2.25 9.246 2.25 11.9985C2.25 14.7518 3.0795 17.181 4.67625 18.915C6.26325 20.6385 8.676 21.7485 11.9992 21.7485C15.3217 21.7485 17.7353 20.6385 19.3223 18.915C20.919 17.1817 21.7485 14.7525 21.7485 11.9992C21.7485 9.24675 20.919 6.81675 19.3223 5.0835C17.7353 3.36 15.3225 2.25 12 2.25C8.6775 2.25 6.26325 3.36 4.67625 5.0835Z" fill="#503B9A" fill-opacity="0.5"/>
</g>
<defs>
<clipPath id="clip0_920_57">
<rect width="24" height="24" fill="white"/>
</clipPath>
</defs>
</svg>
